<svg xmlns="http://www.w3.org/2000/svg" viewBox="0 0 512 512">
<rect width="512" height="512" rx="110" fill="#085041"/>
<g fill="#E1F5EE" transform="translate(80,180) scale(10)">

<path d="M36.5 13C36.7761 13 37 12.7761 37 12.5C37 12.2239 36.7761 12 36.5 12C36.2239 12 36 12.2239 36 12.5C36 12.7761 36.2239 13 36.5 13Z" fill="#5DCAA5"/>
<path d="M2.652 6.684C2.352 6.684 2.114 6.762 1.938 6.918C1.766 7.074 1.68 7.276 1.68 7.524C1.68 7.676 1.716 7.814 1.788 7.938C1.86 8.062 1.99 8.174 2.178 8.274C2.366 8.374 2.634 8.47 2.982 8.562C3.534 8.69 3.966 8.846 4.278 9.03C4.594 9.214 4.814 9.426 4.938 9.666C5.066 9.902 5.13 10.162 5.13 10.446C5.13 10.954 4.948 11.364 4.584 11.676C4.22 11.984 3.698 12.138 3.018 12.138C2.77 12.138 2.564 12.116 2.4 12.072C2.24 12.028 2.106 11.984 1.998 11.94C1.894 11.896 1.8 11.874 1.716 11.874C1.636 11.874 1.572 11.898 1.524 11.946C1.48 11.99 1.438 12.034 1.398 12.078C1.358 12.122 1.302 12.144 1.23 12.144C1.174 12.144 1.13 12.126 1.098 12.09C1.07 12.058 1.042 12 1.014 11.916L0.576 10.65C0.54 10.542 0.528 10.452 0.54 10.38C0.556 10.304 0.6 10.252 0.672 10.224C0.748 10.196 0.814 10.198 0.87 10.23C0.926 10.258 0.976 10.31 1.02 10.386C1.2 10.714 1.392 10.974 1.596 11.166C1.8 11.358 2.016 11.494 2.244 11.574C2.476 11.654 2.714 11.694 2.958 11.694C3.338 11.694 3.622 11.614 3.81 11.454C3.998 11.294 4.092 11.082 4.092 10.818C4.092 10.658 4.052 10.514 3.972 10.386C3.892 10.254 3.746 10.134 3.534 10.026C3.322 9.914 3.022 9.808 2.634 9.708C2.146 9.592 1.756 9.45 1.464 9.282C1.176 9.114 0.968 8.912 0.84 8.676C0.716 8.44 0.654 8.166 0.654 7.854C0.654 7.538 0.734 7.258 0.894 7.014C1.054 6.77 1.28 6.58 1.572 6.444C1.864 6.308 2.206 6.24 2.598 6.24C2.85 6.24 3.054 6.264 3.21 6.312C3.366 6.356 3.494 6.404 3.594 6.456C3.698 6.504 3.79 6.528 3.87 6.528C3.958 6.528 4.026 6.504 4.074 6.456C4.122 6.404 4.166 6.356 4.206 6.312C4.246 6.264 4.3 6.24 4.368 6.24C4.416 6.24 4.456 6.256 4.488 6.288C4.52 6.32 4.544 6.376 4.56 6.456L4.908 7.656C4.936 7.776 4.946 7.874 4.938 7.95C4.93 8.026 4.886 8.08 4.806 8.112C4.734 8.14 4.67 8.134 4.614 8.094C4.558 8.054 4.502 7.986 4.446 7.89C4.218 7.454 3.944 7.144 3.624 6.96C3.308 6.776 2.984 6.684 2.652 6.684ZM11.403 8.49C11.403 8.674 11.347 8.816 11.235 8.916C11.127 9.012 10.969 9.06 10.761 9.06H6.927V8.676H9.807C10.007 8.676 10.107 8.588 10.107 8.412C10.107 7.876 9.991 7.458 9.759 7.158C9.527 6.858 9.219 6.708 8.835 6.708C8.527 6.708 8.257 6.796 8.025 6.972C7.793 7.144 7.611 7.39 7.479 7.71C7.351 8.026 7.287 8.398 7.287 8.826C7.287 9.622 7.477 10.226 7.857 10.638C8.241 11.05 8.741 11.256 9.357 11.256C9.753 11.256 10.097 11.168 10.389 10.992C10.681 10.812 10.887 10.574 11.007 10.278C11.059 10.214 11.101 10.17 11.133 10.146C11.169 10.118 11.207 10.104 11.247 10.104C11.303 10.104 11.343 10.128 11.367 10.176C11.391 10.224 11.403 10.28 11.403 10.344C11.379 10.672 11.259 10.972 11.043 11.244C10.831 11.516 10.545 11.734 10.185 11.898C9.829 12.058 9.423 12.138 8.967 12.138C8.407 12.138 7.911 12.02 7.479 11.784C7.051 11.548 6.717 11.218 6.477 10.794C6.237 10.366 6.117 9.864 6.117 9.288C6.117 8.7 6.233 8.178 6.465 7.722C6.701 7.262 7.033 6.9 7.461 6.636C7.893 6.372 8.405 6.24 8.997 6.24C9.489 6.24 9.915 6.336 10.275 6.528C10.635 6.716 10.913 6.98 11.109 7.32C11.305 7.656 11.403 8.046 11.403 8.49ZM14.4208 6.594V11.172C14.4208 11.28 14.4408 11.362 14.4808 11.418C14.5208 11.47 14.5808 11.506 14.6608 11.526L14.9248 11.592C15.0528 11.632 15.1168 11.698 15.1168 11.79C15.1168 11.93 15.0228 12 14.8348 12H12.6928C12.6008 12 12.5328 11.982 12.4888 11.946C12.4448 11.91 12.4228 11.862 12.4228 11.802C12.4228 11.75 12.4388 11.708 12.4708 11.676C12.5068 11.64 12.5588 11.612 12.6268 11.592L12.9148 11.526C12.9948 11.506 13.0548 11.47 13.0948 11.418C13.1348 11.362 13.1548 11.28 13.1548 11.172V7.452C13.1548 7.36 13.1388 7.294 13.1068 7.254C13.0788 7.214 13.0288 7.19 12.9568 7.182L12.5548 7.164C12.4828 7.152 12.4328 7.132 12.4048 7.104C12.3768 7.076 12.3628 7.038 12.3628 6.99C12.3628 6.938 12.3788 6.896 12.4108 6.864C12.4468 6.828 12.5088 6.794 12.5968 6.762L13.5928 6.414C13.7168 6.366 13.8188 6.332 13.8988 6.312C13.9788 6.292 14.0508 6.282 14.1148 6.282C14.2148 6.282 14.2908 6.31 14.3428 6.366C14.3948 6.422 14.4208 6.498 14.4208 6.594ZM14.2468 7.872L14.0128 7.632L14.2768 7.404C14.7528 6.972 15.1708 6.67 15.5308 6.498C15.8908 6.326 16.2348 6.24 16.5628 6.24C17.0708 6.24 17.4788 6.4 17.7868 6.72C18.0988 7.036 18.2548 7.466 18.2548 8.01V11.148C18.2548 11.264 18.2768 11.352 18.3208 11.412C18.3688 11.468 18.4348 11.508 18.5188 11.532L18.7708 11.592C18.8388 11.612 18.8888 11.64 18.9208 11.676C18.9568 11.708 18.9748 11.75 18.9748 11.802C18.9748 11.862 18.9528 11.91 18.9088 11.946C18.8688 11.982 18.8008 12 18.7048 12H16.5568C16.3688 12 16.2748 11.93 16.2748 11.79C16.2748 11.698 16.3368 11.632 16.4608 11.592L16.7428 11.526C16.8268 11.506 16.8888 11.466 16.9288 11.406C16.9688 11.346 16.9888 11.26 16.9888 11.148V8.202C16.9888 7.802 16.8888 7.504 16.6888 7.308C16.4928 7.108 16.2308 7.008 15.9028 7.008C15.7028 7.008 15.4848 7.06 15.2488 7.164C15.0168 7.264 14.7688 7.426 14.5048 7.65L14.2468 7.872ZM20.1997 6.858L19.8817 6.774C19.7817 6.746 19.7117 6.714 19.6717 6.678C19.6357 6.642 19.6177 6.6 19.6177 6.552C19.6177 6.488 19.6397 6.44 19.6837 6.408C19.7277 6.376 19.7857 6.36 19.8577 6.36H20.2417C20.3497 6.36 20.4357 6.344 20.4997 6.312C20.5637 6.276 20.6217 6.212 20.6737 6.12L21.1537 5.25C21.2137 5.158 21.2737 5.092 21.3337 5.052C21.3937 5.008 21.4557 4.986 21.5197 4.986C21.5877 4.986 21.6397 5.008 21.6757 5.052C21.7157 5.092 21.7357 5.152 21.7357 5.232V10.518C21.7357 10.79 21.7917 11 21.9037 11.148C22.0197 11.292 22.1797 11.364 22.3837 11.364C22.5317 11.364 22.6457 11.34 22.7257 11.292C22.8057 11.24 22.8697 11.182 22.9177 11.118C22.9657 11.054 23.0097 10.998 23.0497 10.95C23.0937 10.898 23.1457 10.87 23.2057 10.866C23.2577 10.866 23.2957 10.884 23.3197 10.92C23.3477 10.952 23.3617 11.004 23.3617 11.076C23.3617 11.248 23.2997 11.412 23.1757 11.568C23.0517 11.724 22.8797 11.852 22.6597 11.952C22.4437 12.052 22.1957 12.102 21.9157 12.102C21.4717 12.102 21.1197 11.988 20.8597 11.76C20.5997 11.528 20.4697 11.18 20.4697 10.716V7.206C20.4697 7.106 20.4497 7.03 20.4097 6.978C20.3697 6.926 20.2997 6.886 20.1997 6.858ZM21.1717 6.834V6.36H23.0557C23.1397 6.36 23.2037 6.376 23.2477 6.408C23.2917 6.436 23.3137 6.482 23.3137 6.546C23.3137 6.63 23.2697 6.7 23.1817 6.756C23.0977 6.808 22.9657 6.834 22.7857 6.834H21.1717ZM26.0468 8.868C26.0468 8.3 26.1308 7.82 26.2988 7.428C26.4668 7.036 26.6848 6.74 26.9528 6.54C27.2208 6.34 27.5068 6.24 27.8108 6.24C28.1748 6.24 28.4568 6.34 28.6568 6.54C28.8568 6.736 28.9568 7.01 28.9568 7.362C28.9568 7.642 28.8968 7.852 28.7768 7.992C28.6608 8.132 28.5108 8.202 28.3268 8.202C28.1348 8.202 27.9868 8.15 27.8828 8.046C27.7828 7.942 27.7328 7.796 27.7328 7.608V7.404C27.7288 7.268 27.6948 7.168 27.6308 7.104C27.5668 7.036 27.4628 7.002 27.3188 7.002C27.1468 7.002 26.9788 7.072 26.8148 7.212C26.6508 7.348 26.5168 7.554 26.4128 7.83C26.3088 8.102 26.2568 8.448 26.2568 8.868H26.0468ZM26.1908 6.6L26.2568 7.998V11.172C26.2568 11.272 26.2788 11.348 26.3228 11.4C26.3708 11.452 26.4508 11.486 26.5628 11.502L27.1028 11.58C27.1868 11.592 27.2488 11.616 27.2888 11.652C27.3288 11.684 27.3488 11.732 27.3488 11.796C27.3488 11.86 27.3248 11.91 27.2768 11.946C27.2328 11.982 27.1648 12 27.0728 12H24.5288C24.4368 12 24.3688 11.982 24.3248 11.946C24.2808 11.91 24.2588 11.862 24.2588 11.802C24.2588 11.75 24.2748 11.708 24.3068 11.676C24.3428 11.64 24.3948 11.612 24.4628 11.592L24.7508 11.526C24.8308 11.506 24.8908 11.47 24.9308 11.418C24.9708 11.362 24.9908 11.28 24.9908 11.172V7.458C24.9908 7.366 24.9748 7.3 24.9428 7.26C24.9148 7.22 24.8648 7.196 24.7928 7.188L24.3908 7.17C24.3188 7.162 24.2688 7.144 24.2408 7.116C24.2128 7.084 24.1988 7.046 24.1988 7.002C24.1988 6.95 24.2148 6.906 24.2468 6.87C24.2828 6.834 24.3448 6.802 24.4328 6.774L25.4108 6.426C25.5668 6.37 25.6828 6.332 25.7588 6.312C25.8388 6.292 25.9008 6.282 25.9448 6.282C26.0208 6.282 26.0768 6.306 26.1128 6.354C26.1528 6.402 26.1788 6.484 26.1908 6.6ZM33.3325 11.262V11.142L33.2545 11.106V7.68C33.2545 7.332 33.1665 7.066 32.9905 6.882C32.8185 6.698 32.5745 6.606 32.2585 6.606C31.9545 6.606 31.7265 6.67 31.5745 6.798C31.4225 6.922 31.3465 7.072 31.3465 7.248V7.716C31.3465 7.908 31.2825 8.056 31.1545 8.16C31.0265 8.264 30.8525 8.316 30.6325 8.316C30.4365 8.316 30.2865 8.266 30.1825 8.166C30.0785 8.066 30.0265 7.93 30.0265 7.758C30.0265 7.514 30.1225 7.276 30.3145 7.044C30.5105 6.812 30.7905 6.62 31.1545 6.468C31.5225 6.316 31.9685 6.24 32.4925 6.24C33.1725 6.24 33.6785 6.388 34.0105 6.684C34.3425 6.976 34.5085 7.368 34.5085 7.86V11.106C34.5085 11.234 34.5325 11.328 34.5805 11.388C34.6325 11.448 34.7025 11.478 34.7905 11.478C34.8905 11.478 34.9625 11.456 35.0065 11.412C35.0505 11.364 35.0865 11.318 35.1145 11.274C35.1385 11.25 35.1605 11.228 35.1805 11.208C35.2005 11.188 35.2265 11.178 35.2585 11.178C35.3025 11.178 35.3345 11.194 35.3545 11.226C35.3745 11.258 35.3845 11.3 35.3845 11.352C35.3845 11.464 35.3445 11.582 35.2645 11.706C35.1845 11.826 35.0685 11.928 34.9165 12.012C34.7645 12.096 34.5745 12.138 34.3465 12.138C34.0305 12.138 33.7825 12.064 33.6025 11.916C33.4225 11.764 33.3325 11.546 33.3325 11.262ZM29.7565 10.752C29.7565 10.276 29.9685 9.888 30.3925 9.588C30.8165 9.284 31.4045 9.132 32.1565 9.132C32.4325 9.132 32.6825 9.158 32.9065 9.21C33.1345 9.258 33.3365 9.322 33.5125 9.402L33.4165 9.726C33.2485 9.658 33.0765 9.602 32.9005 9.558C32.7285 9.51 32.5405 9.486 32.3365 9.486C31.9365 9.486 31.6245 9.582 31.4005 9.774C31.1765 9.962 31.0645 10.22 31.0645 10.548C31.0645 10.868 31.1565 11.114 31.3405 11.286C31.5245 11.458 31.7585 11.544 32.0425 11.544C32.3105 11.544 32.5665 11.484 32.8105 11.364C33.0585 11.24 33.2725 11.066 33.4525 10.842L33.5785 11.124C33.3425 11.448 33.0365 11.698 32.6605 11.874C32.2885 12.05 31.8945 12.138 31.4785 12.138C30.9705 12.138 30.5565 12.014 30.2365 11.766C29.9165 11.514 29.7565 11.176 29.7565 10.752Z" fill="#E1F5EE"/>

</g></svg>